<?xml version="1.0" encoding="UTF-8"?>
<svg version="1.1" xmlns="http://www.w3.org/2000/svg" width="1024" height="1536">
<path d="M0 0 C337.92 0 675.84 0 1024 0 C1024 506.88 1024 1013.76 1024 1536 C686.08 1536 348.16 1536 0 1536 C0 1029.12 0 522.24 0 0 Z " fill="#FCFDFD" transform="translate(0,0)"/>
<path d="M0 0 C0.76877472 -0.00133942 1.53754944 -0.00267883 2.32962036 -0.00405884 C13.44438441 0.00015796 23.92791165 0.44762151 34.75 3.25 C36.24660156 3.59224609 36.24660156 3.59224609 37.7734375 3.94140625 C58.19928488 8.94774139 77.31452406 21.31590287 88.64697266 39.32519531 C95.61812884 51.49000173 100.08034695 64.35610138 101.75 78.25 C101.83515366 78.89007492 101.92030731 79.53014984 102.00804138 80.18962097 C102.76091864 86.20831794 102.88024757 92.13104283 102.84765625 98.19140625 C102.84553383 99.70383156 102.84553383 99.70383156 102.84336853 101.24681091 C102.83781605 104.43540542 102.82527261 107.62392708 102.8125 110.8125 C102.80747885 112.98762919 102.80291702 115.16275949 102.79882812 117.33789062 C102.78786223 122.64195151 102.77117214 127.94597055 102.75 133.25 C103.62181915 133.08734146 104.49363831 132.92468292 105.39187622 132.75709534 C108.49123861 132.28907441 111.35102547 132.12926504 114.47998047 132.13647461 C115.58066864 132.13655014 116.68135681 132.13662567 117.81539917 132.13670349 C118.98748932 132.14186478 120.15957947 132.14702606 121.3671875 132.15234375 C122.57948029 132.1537587 123.79177307 132.15517365 125.040802 132.15663147 C128.90222673 132.16221655 132.76359288 132.17476639 136.625 132.1875 C139.24739499 132.19251692 141.8697909 132.1970795 144.4921875 132.20117188 C150.91147822 132.21218111 157.33073493 132.22890445 163.75 132.25 C163.43256836 131.04384033 163.11513672 129.83768066 162.78808594 128.5949707 C160.19442528 118.18674253 160.51065871 107.22701257 160.5 96.5625 C160.49899292 95.85789642 160.49798584 95.15329285 160.49694824 94.42733765 C160.50724909 83.74914534 161.03227529 73.63100854 163.75 63.25 C164.04003906 62.10273437 164.33007812 60.95546875 164.62890625 59.7734375 C167.83067671 48.33280164 172.86181313 38.16160432 180.75 29.25 C181.82701172 28.03183594 181.82701172 28.03183594 182.92578125 26.7890625 C198.44338938 10.28096875 221.17218692 1.17693154 243.72265625 0.30859375 C245.06509719 0.28858875 246.40754619 0.26912154 247.75 0.25 C248.63929199 0.22566895 249.52858398 0.20133789 250.44482422 0.17626953 C284.12079144 -0.70950579 316.53520072 4.40863253 341.75 28.25 C365.4615438 51.28277823 374.42564234 87.18316452 374.9453125 119.14453125 C374.97624642 121.95052772 374.99009733 124.75636067 375 127.5625 C375.00517639 128.22910645 375.01035278 128.89571289 375.01568604 129.58251953 C375.09148992 141.96407521 373.91526039 153.92914556 371.1171875 166.00390625 C370.10264867 172.20986184 371.05092609 175.3728951 374.4375 180.6875 C378.83343527 187.89870032 381.4568489 195.12620116 383.75 203.25 C384.11609375 204.405 384.4821875 205.56 384.859375 206.75 C386.26315341 212.51368368 386.12201777 218.42851916 386.12060547 224.32910156 C386.12494735 226.35048793 386.16126343 228.3696277 386.19921875 230.390625 C386.23825365 243.68851333 382.42187804 254.97382842 377.60546875 267.19140625 C376.66945169 270.5379878 376.60987884 271.99988086 377.75 275.25 C378.89308357 277.22669817 380.11064424 279.16108468 381.375 281.0625 C389.53304658 293.86228904 394.1613571 307.57770621 397.75 322.25 C397.92277466 322.92841949 398.09554932 323.60683899 398.27355957 324.30581665 C399.59488892 329.77667609 400.09613044 334.97264429 400.19921875 340.58984375 C400.22095657 341.43801163 400.2426944 342.2861795 400.26509094 343.16004944 C400.30864623 344.93383055 400.34792375 346.70772154 400.38305664 348.48168945 C400.43785128 351.20495825 400.50796719 353.92753067 400.58007812 356.65039062 C400.62068688 358.38018755 400.66043192 360.11000501 400.69921875 361.83984375 C400.71997971 362.65436508 400.74074066 363.46888641 400.76213074 364.30809021 C400.86576791 370.01846417 400.86576791 370.01846417 399.75 372.25 C399.811875 372.95125 399.87375 373.6525 399.9375 374.375 C399.70770814 377.89847513 398.46279339 380.01896426 396.81640625 383.09375 C395.7694984 385.21057467 395.0579164 387.24269549 394.375 389.5 C387.08227724 411.95390956 370.52865646 427.84831856 350.0390625 438.68359375 C315.45441512 455.35277064 263.01186788 457.89368594 226.61328125 445.3359375 C225.66839844 444.97757813 224.72351563 444.61921875 223.75 444.25 C222.77417969 443.89164063 221.79835938 443.53328125 220.79296875 443.1640625 C199.54429499 434.86510473 184.10473951 422.26785819 174.09765625 401.453125 C168.13349684 387.27744176 166.4326055 372.75568772 166.5546875 357.515625 C166.55670166 356.30890137 166.55871582 355.10217773 166.56079102 353.85888672 C166.57115465 349.4058851 166.59907615 344.95293822 166.625 340.5 C166.66625 330.5175 166.7075 320.535 166.75 310.25 C145.63 310.25 124.51 310.25 102.75 310.25 C102.7892955 325.28114689 102.7892955 325.28114689 102.84008789 340.31225586 C102.9136873 371.76449868 101.00475301 400.56676745 77.75 424.25 C77.07324219 424.95125 76.39648438 425.6525 75.69921875 426.375 C62.27946049 439.31457858 42.94318676 445.45701286 24.96484375 448.6640625 C22.48186529 449.11661021 20.16151435 449.65932477 17.75 450.375 C-12.93322283 458.25933991 -54.15862471 451.84721295 -81.25 436.25 C-100.37337572 424.74796963 -112.0093829 408.410914 -117.69799805 386.83178711 C-120.412105 374.13754515 -120.6106699 361.35892592 -120.5625 348.4375 C-120.56233887 347.55023224 -120.56217773 346.66296448 -120.56201172 345.74880981 C-120.54271616 330.408669 -119.53770328 315.43442771 -117.25 300.25 C-118.12140625 299.99347656 -118.9928125 299.73695313 -119.890625 299.47265625 C-137.4257542 293.09068481 -151.62833594 276.57577416 -159.63745117 260.24853516 C-162.34804054 254.42712584 -164.07951707 248.56673847 -165.25 242.25 C-165.42128418 241.47068115 -165.59256836 240.6913623 -165.76904297 239.88842773 C-166.5500226 235.60413998 -166.43445377 231.34391861 -166.4375 227 C-166.44974609 226.09636719 -166.46199219 225.19273437 -166.47460938 224.26171875 C-166.49585721 214.41688909 -164.35822363 206.63103002 -160.0625 197.8125 C-159.6588623 196.97775146 -159.25522461 196.14300293 -158.83935547 195.28295898 C-148.25087521 173.81478383 -129.76764454 157.18753864 -109.25 145.25 C-108.59 145.25 -107.93 145.25 -107.25 145.25 C-107.45496094 144.52554688 -107.65992188 143.80109375 -107.87109375 143.0546875 C-108.14050781 142.08789062 -108.40992188 141.12109375 -108.6875 140.125 C-108.95433594 139.17367187 -109.22117187 138.22234375 -109.49609375 137.2421875 C-116.79123259 108.28842401 -111.07199397 73.9034511 -96.25 48.25 C-80.91019442 23.47553524 -55.82023211 9.24935729 -28.06640625 2.47265625 C-25.7979598 2.0108774 -23.53579742 1.61275561 -21.25 1.25 C-20.53400635 1.08250244 -19.8180127 0.91500488 -19.08032227 0.74243164 C-12.82684404 -0.3455754 -6.33793118 0.00644362 0 0 Z " fill="#63E5F0" transform="translate(378.25,457.75)"/>
<path d="M0 0 C0.76877472 -0.00133942 1.53754944 -0.00267883 2.32962036 -0.00405884 C13.44438441 0.00015796 23.92791165 0.44762151 34.75 3.25 C36.24660156 3.59224609 36.24660156 3.59224609 37.7734375 3.94140625 C58.19928488 8.94774139 77.31452406 21.31590287 88.64697266 39.32519531 C95.61812884 51.49000173 100.08034695 64.35610138 101.75 78.25 C101.83515366 78.89007492 101.92030731 79.53014984 102.00804138 80.18962097 C102.76091864 86.20831794 102.88024757 92.13104283 102.84765625 98.19140625 C102.84553383 99.70383156 102.84553383 99.70383156 102.84336853 101.24681091 C102.83781605 104.43540542 102.82527261 107.62392708 102.8125 110.8125 C102.80747885 112.98762919 102.80291702 115.16275949 102.79882812 117.33789062 C102.78786223 122.64195151 102.77117214 127.94597055 102.75 133.25 C103.62181915 133.08734146 104.49363831 132.92468292 105.39187622 132.75709534 C108.49123861 132.28907441 111.35102547 132.12926504 114.47998047 132.13647461 C115.58066864 132.13655014 116.68135681 132.13662567 117.81539917 132.13670349 C118.98748932 132.14186478 120.15957947 132.14702606 121.3671875 132.15234375 C122.57948029 132.1537587 123.79177307 132.15517365 125.040802 132.15663147 C128.90222673 132.16221655 132.76359288 132.17476639 136.625 132.1875 C139.24739499 132.19251692 141.8697909 132.1970795 144.4921875 132.20117188 C150.91147822 132.21218111 157.33073493 132.22890445 163.75 132.25 C163.43256836 131.04384033 163.11513672 129.83768066 162.78808594 128.5949707 C160.19442528 118.18674253 160.51065871 107.22701257 160.5 96.5625 C160.49899292 95.85789642 160.49798584 95.15329285 160.49694824 94.42733765 C160.50724909 83.74914534 161.03227529 73.63100854 163.75 63.25 C164.04003906 62.10273437 164.33007812 60.95546875 164.62890625 59.7734375 C167.83067671 48.33280164 172.86181313 38.16160432 180.75 29.25 C181.82701172 28.03183594 181.82701172 28.03183594 182.92578125 26.7890625 C198.44338938 10.28096875 221.17218692 1.17693154 243.72265625 0.30859375 C245.06509719 0.28858875 246.40754619 0.26912154 247.75 0.25 C248.63929199 0.22566895 249.52858398 0.20133789 250.44482422 0.17626953 C284.12079144 -0.70950579 316.53520072 4.40863253 341.75 28.25 C365.4615438 51.28277823 374.42564234 87.18316452 374.9453125 119.14453125 C374.97624642 121.95052772 374.99009733 124.75636067 375 127.5625 C375.00517639 128.22910645 375.01035278 128.89571289 375.01568604 129.58251953 C375.09148992 141.96407521 373.91526039 153.92914556 371.1171875 166.00390625 C370.10264867 172.20986184 371.05092609 175.3728951 374.4375 180.6875 C378.83343527 187.89870032 381.4568489 195.12620116 383.75 203.25 C384.11609375 204.405 384.4821875 205.56 384.859375 206.75 C386.26315341 212.51368368 386.12201777 218.42851916 386.12060547 224.32910156 C386.12494735 226.35048793 386.16126343 228.3696277 386.19921875 230.390625 C386.23825365 243.68851333 382.42187804 254.97382842 377.60546875 267.19140625 C376.66945169 270.5379878 376.60987884 271.99988086 377.75 275.25 C378.89308357 277.22669817 380.11064424 279.16108468 381.375 281.0625 C389.53304658 293.86228904 394.1613571 307.57770621 397.75 322.25 C397.92277466 322.92841949 398.09554932 323.60683899 398.27355957 324.30581665 C399.59488892 329.77667609 400.09613044 334.97264429 400.19921875 340.58984375 C400.22095657 341.43801163 400.2426944 342.2861795 400.26509094 343.16004944 C400.30864623 344.93383055 400.34792375 346.70772154 400.38305664 348.48168945 C400.43785128 351.20495825 400.50796719 353.92753067 400.58007812 356.65039062 C400.62068688 358.38018755 400.66043192 360.11000501 400.69921875 361.83984375 C400.71997971 362.65436508 400.74074066 363.46888641 400.76213074 364.30809021 C400.86576791 370.01846417 400.86576791 370.01846417 399.75 372.25 C399.811875 372.95125 399.87375 373.6525 399.9375 374.375 C399.70770814 377.89847513 398.46279339 380.01896426 396.81640625 383.09375 C395.7694984 385.21057467 395.0579164 387.24269549 394.375 389.5 C387.08227724 411.95390956 370.52865646 427.84831856 350.0390625 438.68359375 C315.45441512 455.35277064 263.01186788 457.89368594 226.61328125 445.3359375 C225.66839844 444.97757813 224.72351563 444.61921875 223.75 444.25 C222.77417969 443.89164063 221.79835938 443.53328125 220.79296875 443.1640625 C199.54429499 434.86510473 184.10473951 422.26785819 174.09765625 401.453125 C168.13349684 387.27744176 166.4326055 372.75568772 166.5546875 357.515625 C166.55670166 356.30890137 166.55871582 355.10217773 166.56079102 353.85888672 C166.57115465 349.4058851 166.59907615 344.95293822 166.625 340.5 C166.66625 330.5175 166.7075 320.535 166.75 310.25 C145.63 310.25 124.51 310.25 102.75 310.25 C102.7892955 325.28114689 102.7892955 325.28114689 102.84008789 340.31225586 C102.9136873 371.76449868 101.00475301 400.56676745 77.75 424.25 C77.07324219 424.95125 76.39648438 425.6525 75.69921875 426.375 C62.27946049 439.31457858 42.94318676 445.45701286 24.96484375 448.6640625 C22.48186529 449.11661021 20.16151435 449.65932477 17.75 450.375 C-12.93322283 458.25933991 -54.15862471 451.84721295 -81.25 436.25 C-100.37337572 424.74796963 -112.0093829 408.410914 -117.69799805 386.83178711 C-120.412105 374.13754515 -120.6106699 361.35892592 -120.5625 348.4375 C-120.56233887 347.55023224 -120.56217773 346.66296448 -120.56201172 345.74880981 C-120.54271616 330.408669 -119.53770328 315.43442771 -117.25 300.25 C-118.12140625 299.99347656 -118.9928125 299.73695313 -119.890625 299.47265625 C-137.4257542 293.09068481 -151.62833594 276.57577416 -159.63745117 260.24853516 C-162.34804054 254.42712584 -164.07951707 248.56673847 -165.25 242.25 C-165.42128418 241.47068115 -165.59256836 240.6913623 -165.76904297 239.88842773 C-166.5500226 235.60413998 -166.43445377 231.34391861 -166.4375 227 C-166.44974609 226.09636719 -166.46199219 225.19273437 -166.47460938 224.26171875 C-166.49585721 214.41688909 -164.35822363 206.63103002 -160.0625 197.8125 C-159.6588623 196.97775146 -159.25522461 196.14300293 -158.83935547 195.28295898 C-148.25087521 173.81478383 -129.76764454 157.18753864 -109.25 145.25 C-108.59 145.25 -107.93 145.25 -107.25 145.25 C-107.45496094 144.52554688 -107.65992188 143.80109375 -107.87109375 143.0546875 C-108.14050781 142.08789062 -108.40992188 141.12109375 -108.6875 140.125 C-108.95433594 139.17367187 -109.22117187 138.22234375 -109.49609375 137.2421875 C-116.79123259 108.28842401 -111.07199397 73.9034511 -96.25 48.25 C-80.91019442 23.47553524 -55.82023211 9.24935729 -28.06640625 2.47265625 C-25.7979598 2.0108774 -23.53579742 1.61275561 -21.25 1.25 C-20.53400635 1.08250244 -19.8180127 0.91500488 -19.08032227 0.74243164 C-12.82684404 -0.3455754 -6.33793118 0.00644362 0 0 Z M-69.25 39.25 C-69.83910156 39.85199219 -70.42820312 40.45398438 -71.03515625 41.07421875 C-75.86980361 46.31263885 -79.64729083 52.11589086 -83.25 58.25 C-83.71535156 59.04148437 -84.18070313 59.83296875 -84.66015625 60.6484375 C-88.53692323 67.78548252 -90.41677811 75.38691592 -92.25 83.25 C-92.51695679 84.36000366 -92.51695679 84.36000366 -92.78930664 85.49243164 C-93.36394774 88.93205605 -93.41230759 92.312498 -93.41796875 95.7890625 C-93.42129715 96.51056488 -93.42462555 97.23206726 -93.42805481 97.97543335 C-93.43310268 99.50005459 -93.4354638 101.02468681 -93.43530273 102.54931641 C-93.43747343 104.84687268 -93.45560774 107.14393577 -93.47460938 109.44140625 C-93.5130344 119.33185942 -93.03454013 128.6441231 -89.5625 138 C-87.14858909 144.94765221 -89.72410743 151.40897875 -91.53125 158.28515625 C-94.09114492 168.8447228 -95.67381697 181.43947171 -89.85546875 191.13671875 C-84.51433923 198.16725663 -78.47120125 201.42993678 -70.25 204.25 C-69.03957031 204.74628906 -67.82914063 205.24257813 -66.58203125 205.75390625 C-61.79566066 207.54865527 -56.99080443 208.28466576 -51.9375 208.9375 C-50.97473145 209.0619751 -50.01196289 209.1864502 -49.02001953 209.31469727 C-22.29526845 212.52949013 1.58051716 207.81889067 25 194.625 C36.66011698 188.05700106 46.98999288 183.40089493 60.75 185.25 C65.4561102 187.26771633 69.75175526 189.31926623 71.75 194.25 C72.16722487 199.28838638 72.03866696 204.2079505 71.75 209.25 C77.56671824 209.50051815 82.65491437 208.53002129 88.3125 207.25 C100.33240153 204.7225072 112.53895415 202.82506509 123.75 209.25 C127.13431141 212.25307475 130.56182091 215.77741425 130.91796875 220.45703125 C130.98248937 229.06408242 130.98248937 229.06408242 128.75 233.25 C129.29269531 233.63671875 129.83539063 234.0234375 130.39453125 234.421875 C131.10996094 234.94265625 131.82539063 235.4634375 132.5625 236 C133.62404297 236.76570313 133.62404297 236.76570313 134.70703125 237.546875 C138.03334976 240.31986711 139.57227344 242.04738363 140.21875 246.421875 C140.28415323 253.91054484 140.16650764 259.69280385 134.75 265.25 C131.5625 267.5625 131.5625 267.5625 128.75 269.25 C126.49572223 272.63141666 126.25754683 274.69510035 125.75 278.6875 C125.24776095 282.62917967 124.78151756 285.80488481 122.75 289.25 C126.94869809 290.26109653 130.91429013 290.39347618 135.2265625 290.41796875 C135.94539612 290.4221582 136.66422974 290.42634766 137.40484619 290.43066406 C139.72828672 290.44042458 142.0515424 290.44045742 144.375 290.4375 C145.16489319 290.43722809 145.95478638 290.43695618 146.76861572 290.43667603 C175.117204 290.39870236 175.117204 290.39870236 201.9453125 282.1171875 C203.75 281.25 203.75 281.25 206.75 280.25 C206.069375 280.91 205.38875 281.57 204.6875 282.25 C203.70345289 283.24519779 202.72486987 284.24581073 201.75 285.25 C201.18410156 285.83136719 200.61820313 286.41273438 200.03515625 287.01171875 C195.44884422 291.95931576 192.43805053 297.07855815 189.75 303.25 C189.41154053 304.01473633 189.07308105 304.77947266 188.72436523 305.56738281 C187.72138049 308.3287951 187.35439648 310.64508639 187.1171875 313.56640625 C187.03339844 314.57896484 186.94960938 315.59152344 186.86328125 316.63476562 C186.78464844 317.68341797 186.70601562 318.73207031 186.625 319.8125 C186.53863281 320.83408203 186.45226562 321.85566406 186.36328125 322.90820312 C185.79663265 330.03628279 185.63664603 337.10184885 185.75 344.25 C185.76619385 345.45426636 185.76619385 345.45426636 185.78271484 346.68286133 C186.27986336 371.45208342 192.01603219 392.12986538 209.75 410.25 C218.57467864 418.55783195 230.94308421 423.70546718 242.4375 427.125 C243.39644165 427.41129272 243.39644165 427.41129272 244.37475586 427.70336914 C255.92316652 430.89527175 267.56597805 431.65837274 279.5 431.625 C280.20110901 431.62478851 280.90221802 431.62457703 281.62457275 431.62435913 C296.6617554 431.57914516 309.42392938 429.70113626 322.75 422.25 C324.19945189 421.56423782 325.65799506 420.89736161 327.125 420.25 C327.85460937 419.92773438 328.58421875 419.60546875 329.3359375 419.2734375 C331.10173185 418.52483213 332.87970705 417.80478033 334.6640625 417.1015625 C353.06964305 409.78592669 366.54192825 397.15191422 374.4609375 378.87890625 C378.66690541 367.03846931 379.0061245 355.02390096 379.0625 342.5625 C379.06813965 341.35650146 379.0737793 340.15050293 379.07958984 338.90795898 C379.03019912 332.93795984 378.69677811 327.89047497 376.75 322.25 C376.47591143 320.60800645 376.22456672 318.96199603 376 317.3125 C373.28808882 302.06321484 365.65191952 285.19055001 355.75 273.25 C355.09 273.25 354.43 273.25 353.75 273.25 C354.14832031 272.60933594 354.54664063 271.96867187 354.95703125 271.30859375 C360.54707222 262.85732543 360.54707222 262.85732543 362.75 253.25 C363.41 253.25 364.07 253.25 364.75 253.25 C365.2398355 251.77433205 365.7161592 250.29417897 366.1875 248.8125 C366.45433594 247.98878906 366.72117187 247.16507813 366.99609375 246.31640625 C371.54483388 227.81505392 370.06869003 206.75551535 362.75 189.25 C362.09 189.25 361.43 189.25 360.75 189.25 C360.63398437 187.94095703 360.63398437 187.94095703 360.515625 186.60546875 C359.61242539 182.64705821 358.02558025 180.71088491 355.5 177.5625 C351.7387291 172.09156051 351.7387291 172.09156051 351.78515625 168.625 C352.5625 166.0625 352.5625 166.0625 353.60400391 163.47412109 C357.83621598 151.56730545 358.23722537 138.79936193 358.14111328 126.29370117 C358.12502912 123.81698389 358.14107296 121.34190291 358.16015625 118.86523438 C358.19897219 87.78250831 349.15612675 58.16043027 327.25 35.375 C309.94167754 18.86826366 287.35177039 13.9211489 264.1875 13.8125 C263.49520294 13.80614532 262.80290588 13.79979065 262.08963013 13.79324341 C238.67345759 13.65982089 217.23200382 18.91392021 199.75 35.25 C181.50479661 53.91875275 178.39602504 78.70922902 178.59765625 103.60546875 C178.8769718 119.84501358 181.08907545 135.31510649 187.75 150.25 C185.95793453 150.10915204 184.16635083 149.96216299 182.375 149.8125 C180.87839844 149.69068359 180.87839844 149.69068359 179.3515625 149.56640625 C176.75 149.25 176.75 149.25 174.75 148.25 C163.92858681 146.83028107 152.89275295 147.00845402 142 147 C141.09636719 146.99899292 140.19273437 146.99798584 139.26171875 146.99694824 C118.58959653 147.01248157 98.76293828 148.8269617 78.75 154.25 C79.08773437 153.59515625 79.42546875 152.9403125 79.7734375 152.265625 C80.44246094 150.89664063 80.44246094 150.89664063 81.125 149.5 C81.56585938 148.61828125 82.00671875 147.7365625 82.4609375 146.828125 C86.60447988 135.32665585 86.09105428 123.14949155 86.06567383 111.08813477 C86.06251751 107.95488545 86.08602328 104.82258609 86.11132812 101.68945312 C86.18558823 78.08678642 81.7156154 55.60009042 65.75 37.25 C65.23695313 36.59644531 64.72390625 35.94289063 64.1953125 35.26953125 C54.09335419 23.60805403 37.49289888 17.92899534 22.75 15.25 C21.82243896 15.07710449 20.89487793 14.90420898 19.93920898 14.72607422 C-10.70772269 10.15120499 -46.89454652 16.37825429 -69.25 39.25 Z " fill="#024980" transform="translate(378.25,457.75)"/>
<path d="M0 0 C1.02351562 0.46921875 2.04703125 0.9384375 3.1015625 1.421875 C20.37919119 9.91906944 30.83026188 25.07726265 37 43 C39.92321152 52.93158055 41.15594569 62.2326782 41.16796875 72.54296875 C41.17129715 73.54781815 41.17462555 74.55266754 41.17805481 75.58796692 C41.18310089 77.70846095 41.18546385 79.82896286 41.18530273 81.94946289 C41.18748121 85.15980447 41.20563987 88.36979758 41.22460938 91.58007812 C41.2985305 117.402939 41.2985305 117.402939 36.375 127.25 C35.70597656 128.61898437 35.70597656 128.61898437 35.0234375 130.015625 C34.68570313 130.67046875 34.34796875 131.3253125 34 132 C35.98 132 37.96 132 40 132 C40 132.33 40 132.66 40 133 C38.86111328 133.07347656 38.86111328 133.07347656 37.69921875 133.1484375 C36.20841797 133.26058594 36.20841797 133.26058594 34.6875 133.375 C33.70136719 133.44460938 32.71523438 133.51421875 31.69921875 133.5859375 C28.78471567 133.83865472 28.78471567 133.83865472 26 136 C23.605208 136.58409561 21.46475374 137 19 137 C19 137.66 19 138.32 19 139 C18.40832031 139.30292969 17.81664062 139.60585938 17.20703125 139.91796875 C12.41082472 142.46081887 8.66150426 144.90773053 5 149 C3.3125 150.8125 3.3125 150.8125 2 152 C1.34 152 0.68 152 0 152 C-0.00257813 152.61488281 -0.00515625 153.22976563 -0.0078125 153.86328125 C-0.12756378 156.36608308 -0.32791737 158.58308747 -1 161 C-3.875 162.875 -3.875 162.875 -7 164 C-8.00286718 164.99712458 -9.00252553 165.99748083 -10 167 C-39.96359032 186.09977859 -72.21230033 192.4587466 -107 185 C-119.28166802 181.75404135 -128.93717519 176.99012415 -135.87109375 166.05078125 C-141.42295834 155.96521409 -137.73003844 140.59455285 -135 130 C-134.63261719 128.93652344 -134.26523437 127.87304688 -133.88671875 126.77734375 C-132.07730268 121.10996567 -134.25451486 115.84435335 -136.28125 110.50390625 C-138.57502307 102.51309898 -138.25121669 93.98997107 -138.29516602 85.74902344 C-138.30661237 84.26389991 -138.32694605 82.77881509 -138.35668945 81.29394531 C-138.64672567 66.74352502 -136.28153178 53.29039881 -130 40 C-129.58105469 39.10925781 -129.16210938 38.21851563 -128.73046875 37.30078125 C-125.13447854 30.19795762 -120.5424009 24.67657448 -115 19 C-114.13375 18.0925 -113.2675 17.185 -112.375 16.25 C-111.59125 15.5075 -110.8075 14.765 -110 14 C-109.071875 13.0925 -108.14375 12.185 -107.1875 11.25 C-97.28053582 2.93676484 -85.51574024 -2.18075476 -73 -5 C-71.95972656 -5.29648437 -70.91945313 -5.59296875 -69.84765625 -5.8984375 C-47.71330716 -11.52887869 -20.7067314 -10.05181136 0 0 Z " fill="#88F3F4" transform="translate(423,480)"/>
<path d="M0 0 C1.15177734 -0.020625 2.30355469 -0.04125 3.49023438 -0.0625 C14.50841544 -0.11193659 25.76703191 1.80478397 35.9375 6.25 C36.9275 7.24 36.9275 7.24 37.9375 8.25 C39.59011839 9.27304948 41.25541365 10.27616054 42.9375 11.25 C41.78790111 14.29164706 40.48957284 17.22186775 39.0625 20.140625 C38.71703125 20.85089844 38.3715625 21.56117188 38.015625 22.29296875 C37.3030309 23.75172117 36.58437491 25.20752963 35.859375 26.66015625 C31.76522001 35.13872349 30.56438133 43.07018424 30.625 52.4375 C30.63345947 53.81723999 30.63345947 53.81723999 30.64208984 55.22485352 C30.94265637 72.23364565 36.21289884 87.89941625 46.9375 101.25 C47.60523438 102.08144531 48.27296875 102.91289063 48.9609375 103.76953125 C57.32042073 113.59267851 67.47077551 120.49406546 78.9375 126.25 C79.02837634 132.13243993 78.73244296 137.70943341 77.953125 143.53125 C76.83446004 152.74432589 76.63163388 161.86326289 76.67675781 171.13623047 C76.68749428 173.74860826 76.6767747 176.36029879 76.6640625 178.97265625 C76.65616872 190.19129691 77.45571546 201.1315529 78.9375 212.25 C78.25236328 211.96825928 77.56722656 211.68651855 76.86132812 211.39624023 C71.92466797 209.34792386 71.92466797 209.34792386 66.84375 210.05859375 C65.53583585 210.96180496 64.24337703 211.88768885 62.96484375 212.83203125 C54.66029702 218.64041364 43.60170203 217.98170458 33.9375 217.25 C31.59386264 216.66141528 29.52376551 215.90110845 27.30078125 214.96875 C24.03351253 213.97506827 20.90697723 213.94837147 17.5 213.8125 C4.9277234 213.13495216 -3.22797761 208.08452239 -12.0625 199.25 C-13.98879017 199.44430042 -15.91521693 199.65162846 -17.82910156 199.94384766 C-33.6493879 202.11247895 -49.38164223 199.6180013 -62.75 190.6875 C-70.54626488 184.75747983 -75.60571873 176.96187514 -77.0625 167.25 C-77.38094495 162.55293692 -76.90099981 159.53253725 -75.0625 155.25 C-76.15046875 155.03085937 -77.2384375 154.81171875 -78.359375 154.5859375 C-91.94137997 151.71326826 -105.3793986 147.63319371 -113.8125 135.79296875 C-119.67889432 126.38699517 -120.997975 118.31199186 -120.0625 107.25 C-118.38995018 100.69284444 -114.38634999 95.3485834 -110.0625 90.25 C-109.56105469 89.65316406 -109.05960938 89.05632812 -108.54296875 88.44140625 C-100.89962798 80.0913819 -90.02563349 74.72207912 -79.0625 72.25 C-77.06334846 72.19174966 -75.06114176 72.17630377 -73.0625 72.25 C-73.38605469 71.38632812 -73.70960937 70.52265625 -74.04296875 69.6328125 C-77.16501168 59.27385013 -75.14473933 47.61532635 -70.50390625 38.03125 C-59.30207635 18.46880278 -42.30157379 8.13765433 -21.15795898 1.77148438 C-14.11962735 0.01989678 -7.21012944 0.03153692 0 0 Z M-74.0625 152.25 C-73.0625 154.25 -73.0625 154.25 -73.0625 154.25 Z " fill="#CAECF7" transform="translate(182.0625,631.75)"/>
<path d="M0 0 C-0.02356567 0.95869995 -0.02356567 0.95869995 -0.04760742 1.93676758 C-0.1108263 4.89525123 -0.1492618 7.85359204 -0.1875 10.8125 C-0.21263672 11.81732422 -0.23777344 12.82214844 -0.26367188 13.85742188 C-0.35139527 22.95141415 0.7758257 33.81959781 7 41 C23.909536 55.78768303 47.77720461 60.41076288 69.5625 60.3125 C70.55269638 60.30876877 70.55269638 60.30876877 71.56289673 60.30496216 C97.83811978 60.15216001 118.37556191 52.51463664 141.11474609 39.81933594 C157.51339489 30.74387787 157.51339489 30.74387787 166 33 C169.50390057 35.33593371 170.67184635 36.6873854 171.6875 40.75 C170.39379064 46.86571697 167.52461415 51.32417854 162.28125 54.8046875 C156.10264268 58.00546088 149.74009298 60.30006505 143 62 C160.81584809 60.23005954 178.76027752 58.1304747 196.25 54.25 C206.10568814 52.18586278 216.87879847 51.08858379 226 56 C228.0625 57.75 228.0625 57.75 229 60 C229 64.02982784 228.48310354 66.3003328 226.1875 69.625 C216.23712773 77.03900287 203.63466048 78.88866982 191.75 81.3125 C190.02190833 81.67404649 188.29404149 82.03666935 186.56640625 82.40039062 C182.38008833 83.27933694 178.19101305 84.14373378 174 85 C187.36654112 85.52317681 199.55770417 84.55330197 212.67114258 81.69067383 C226.37885495 78.78965161 226.37885495 78.78965161 232.87426758 81.89648438 C234.5625 83.0625 234.5625 83.0625 237 86 C237.76012711 90.78880078 237.55853808 92.86058231 235.4375 97.1875 C225.88693814 108.20737907 211.42880307 109.97482981 197.79663086 112.58276367 C195.91193586 112.94682786 195.91193586 112.94682786 194 114 C192.4804236 114.15123831 190.95527498 114.24881693 189.4296875 114.31640625 C188.53378906 114.35830078 187.63789063 114.40019531 186.71484375 114.44335938 C185.77769531 114.48267578 184.84054687 114.52199219 183.875 114.5625 C182.93011719 114.60568359 181.98523438 114.64886719 181.01171875 114.69335938 C178.67462908 114.79959072 176.3374317 114.90163176 174 115 C174 115.66 174 116.32 174 117 C187.40018163 117.31750127 200.28266444 117.32748224 213.453125 114.65625 C216.42412744 114.10654911 218.99665817 113.86030968 222 114 C222.46981471 118.46323975 222.70330606 121.7721926 220 125.5 C198.31539949 147.74322019 148.4281255 149.74481613 119.68208313 150.24087524 C118.72996445 150.25162079 117.77784576 150.26236633 116.796875 150.2734375 C115.25334602 150.29209366 115.25334602 150.29209366 113.67863464 150.31112671 C90.22728039 150.53981499 67.97773719 149.8888036 45 145 C43.17473831 144.63801375 41.34923827 144.27722609 39.5234375 143.91796875 C12.80875206 138.47989884 -15.83393071 127.89121646 -32.26171875 104.82421875 C-42.78308366 88.27397562 -46.25703086 71.93428897 -42.953125 52.46484375 C-37.51208673 32.68533167 -21.49891277 11.6315394 -3.875 1.375 C-1 0 -1 0 0 0 Z " fill="#5CE1EF" transform="translate(271,618)"/>
<path d="M0 0 C0.60585938 0.18755859 1.21171875 0.37511719 1.8359375 0.56835938 C31.62023279 9.66402494 61.49927163 13.37354661 92.57910156 13.31567383 C96.0999275 13.31252244 99.61990252 13.33604686 103.140625 13.36132812 C126.44695237 13.42613225 149.18874534 10.69218846 172 6 C173.87480164 5.62400956 175.74979768 5.24898698 177.625 4.875 C179.08334493 4.58339133 180.54168027 4.29173467 182 4 C183.07232922 12.36885704 183.20001356 20.69705157 183.1875 29.125 C183.18709213 30.15580185 183.18709213 30.15580185 183.18667603 31.20742798 C183.16832466 41.28379746 182.89633768 51.08348259 181 61 C180.82855469 62.00675781 180.65710938 63.01351562 180.48046875 64.05078125 C176.8906444 81.53669987 166.56139788 96.72952688 152.109375 107 C147.25548462 110.12210035 142.28271288 112.68614328 137 115 C135.78183594 115.55107422 135.78183594 115.55107422 134.5390625 116.11328125 C111.78412391 125.40906847 80.62935855 126.79412272 57 120 C55.10894531 119.47212891 55.10894531 119.47212891 53.1796875 118.93359375 C34.22302773 113.30169823 17.29969807 102.35773662 7.25 84.97265625 C-0.66604982 68.96244548 -2.20453515 52.1574428 -2.1875 34.5625 C-2.1882251 33.80487366 -2.1889502 33.04724731 -2.18969727 32.2666626 C-2.18854353 21.39123695 -1.86306911 10.74591645 0 0 Z " fill="#3BD7EE" transform="translate(279,766)"/>
<path d="M0 0 C0.33 0 0.66 0 1 0 C1.33 6.6 1.66 13.2 2 20 C3.32 19.34 4.64 18.68 6 18 C7.32 18 8.64 18 10 18 C10.24492188 17.38125 10.48984375 16.7625 10.7421875 16.125 C13.13000326 12.09092617 17.72912191 11.38457394 22 10 C23.13695312 9.62359375 24.27390625 9.2471875 25.4453125 8.859375 C42.24071799 3.96215204 59.4402347 4.52444041 76 10 C76.90621094 10.28875 77.81242188 10.5775 78.74609375 10.875 C96.36161295 17.18840208 110.09884805 29.61313215 118.8125 46 C123.55717197 56.21066231 126.68241514 68.95275459 123 80 C123.56203125 79.95359375 124.1240625 79.9071875 124.703125 79.859375 C144.16458989 79.02360657 160.67884846 85.1483436 175.12890625 97.875 C181.51335123 103.88388939 187.68544874 111.50745104 188.203125 120.546875 C188.22435179 121.94784299 188.23977305 123.34890853 188.25 124.75 C188.270625 125.4409375 188.29125 126.131875 188.3125 126.84375 C188.37587718 135.27291557 184.70519159 141.91136376 179 148 C172.72604642 153.403405 165.19270964 159.12178387 157 161 C153.0707763 160.564558 149.67188147 159.41638215 146 158 C142.96632011 157.09523942 140.24752901 156.87140215 137.0859375 156.8671875 C136.16039062 156.86589844 135.23484375 156.86460937 134.28125 156.86328125 C133.3221875 156.86714844 132.363125 156.87101563 131.375 156.875 C130.40820312 156.87113281 129.44140625 156.86726562 128.4453125 156.86328125 C127.06085938 156.86521484 127.06085938 156.86521484 125.6484375 156.8671875 C124.80458496 156.86831543 123.96073242 156.86944336 123.09130859 156.87060547 C120.94038334 156.8668395 120.94038334 156.8668395 119 158 C117.00039988 158.039992 114.99952758 158.04346799 113 158 C112.79246094 157.23816406 112.58492187 156.47632813 112.37109375 155.69140625 C108.79034725 143.69066171 102.90216138 136.22758791 92 130 C81.08549244 124.62823845 71.28805707 122.63933581 59.1875 122.75 C58.12305664 122.75676758 57.05861328 122.76353516 55.96191406 122.77050781 C40.23840178 122.97784023 25.26787636 126.15474909 12 135 C10.68 135 9.36 135 8 135 C8.14095064 133.3745692 8.28792087 131.74965949 8.4375 130.125 C8.51871094 129.22007812 8.59992187 128.31515625 8.68359375 127.3828125 C9 125 9 125 10 123 C11.89071638 98.18628247 9.01978547 76.0296782 -5 55 C-5.11724458 49.04006736 -3.88919968 43.19289628 -2.50073242 37.42651367 C-0.74299368 28.90863687 -0.76112273 19.97603958 -0.4375 11.3125 C-0.39431641 10.21744141 -0.35113281 9.12238281 -0.30664062 7.99414062 C-0.20191731 5.32951403 -0.09974221 2.66481689 0 0 Z " fill="#D3F0F6" transform="translate(753,577)"/>
<path d="M0 0 C0.60585938 0.18755859 1.21171875 0.37511719 1.8359375 0.56835938 C31.62023279 9.66402494 61.49927163 13.37354661 92.57910156 13.31567383 C96.0999275 13.31252244 99.61990252 13.33604686 103.140625 13.36132812 C126.44695237 13.42613225 149.18874534 10.69218846 172 6 C173.87480164 5.62400956 175.74979768 5.24898698 177.625 4.875 C179.08334493 4.58339133 180.54168027 4.29173467 182 4 C183.07232922 12.36885704 183.20001356 20.69705157 183.1875 29.125 C183.18709213 30.15580185 183.18709213 30.15580185 183.18667603 31.20742798 C183.16832466 41.28379746 182.89633768 51.08348259 181 61 C180.82855469 62.00675781 180.65710938 63.01351562 180.48046875 64.05078125 C176.8906444 81.53669987 166.56139788 96.72952688 152.109375 107 C147.25548462 110.12210035 142.28271288 112.68614328 137 115 C135.78183594 115.55107422 135.78183594 115.55107422 134.5390625 116.11328125 C111.78412391 125.40906847 80.62935855 126.79412272 57 120 C55.10894531 119.47212891 55.10894531 119.47212891 53.1796875 118.93359375 C34.22302773 113.30169823 17.29969807 102.35773662 7.25 84.97265625 C-0.66604982 68.96244548 -2.20453515 52.1574428 -2.1875 34.5625 C-2.1882251 33.80487366 -2.1889502 33.04724731 -2.18969727 32.2666626 C-2.18854353 21.39123695 -1.86306911 10.74591645 0 0 Z M153.375 20.9375 C152.43398438 21.29714844 151.49296875 21.65679688 150.5234375 22.02734375 C149.69070313 22.34832031 148.85796875 22.66929687 148 23 C134.51986842 27.49337719 117.00132888 25.28017583 103 25.3125 C101.13681625 25.31842163 101.13681625 25.31842163 99.23599243 25.32446289 C82.18007702 25.34977555 65.71496847 24.70449525 48.88671875 21.875 C39.33540706 20.11797732 39.33540706 20.11797732 30.06298828 21.89892578 C26.32930393 24.71517132 25.11318751 27.59694582 24 32 C22.89556102 42.72002506 22.29033975 54.03433804 29 63 C29.598125 63.928125 30.19625 64.85625 30.8125 65.8125 C36.3811238 71.3811238 42.29231272 73.8045948 50 75 C49.67644531 75.59167969 49.35289062 76.18335938 49.01953125 76.79296875 C46.97936079 81.20942971 47.71356611 85.12562288 49.1875 89.625 C51.10363175 93.19296947 52.97581262 95.32746232 56 98 C57.2684375 99.2375 57.2684375 99.2375 58.5625 100.5 C68.84369162 108.98265418 82.07207117 109.82866974 94.74365234 109.23535156 C100.48366009 108.63663186 105.15677616 106.12708788 108.90234375 101.8046875 C111 100 111 100 113.6640625 99.8984375 C114.64117187 100.05570313 115.61828125 100.21296875 116.625 100.375 C129.01934787 101.7820878 139.64879456 97.34033758 149.61328125 90.1015625 C160.1198794 80.62929266 165.03186312 66.66309902 167 53 C167.18046875 51.76636719 167.3609375 50.53273438 167.546875 49.26171875 C168.14677514 44.28499012 168.25940659 39.32097803 168.3125 34.3125 C168.34150391 33.38888672 168.37050781 32.46527344 168.40039062 31.51367188 C168.44021997 27.2580595 168.3531751 24.65058571 166.29296875 20.85546875 C164.16798571 18.83192585 164.16798571 18.83192585 161.6015625 18.56640625 C158.67896733 19.05350545 156.13827339 19.86796856 153.375 20.9375 Z " fill="#2CC1E5" transform="translate(279,766)"/>
<path d="M0 0 C-1.32 0.66 -2.64 1.32 -4 2 C-0.04 3.65 3.92 5.3 8 7 C7.67 7.66 7.34 8.32 7 9 C4.16106696 9.49741989 1.35710781 9.89403791 -1.5 10.25 C-21.97255357 13.19894438 -38.36433033 20.96368426 -52 37 C-62.69794366 51.7302455 -67.15942291 65.62567252 -67.3125 83.75 C-67.35600586 85.44382812 -67.35600586 85.44382812 -67.40039062 87.171875 C-67.46199505 95.36052521 -66.4315055 102.4861283 -61.36450195 109.15136719 C-60 111 -60 111 -60 113 C-59.42765625 113.27585937 -58.8553125 113.55171875 -58.265625 113.8359375 C-56.01035733 114.99467848 -53.89143622 116.26875706 -51.75 117.625 C-50.69039063 118.29402344 -50.69039063 118.29402344 -49.609375 118.9765625 C-48.81273437 119.48316406 -48.81273437 119.48316406 -48 120 C-49.65625 123.8359375 -49.65625 123.8359375 -52.75 125.3125 C-58.47845058 128.2868878 -61.72578335 132.54718451 -63.8125 138.625 C-66.76892707 148.55142786 -67.77849285 159.10298911 -63.32421875 168.71484375 C-58.02750503 177.85519043 -51.51723178 181.76162863 -41.625 184.6875 C-36.42320183 186.00586207 -31.35532925 186.73265127 -26 187 C-25.18402344 187.04125 -24.36804688 187.0825 -23.52734375 187.125 C-4.6775529 187.57989691 14.26496669 183.40041255 31.43359375 175.72265625 C34 175 34 175 36.16040039 175.95483398 C36.76746826 176.29973877 37.37453613 176.64464355 38 177 C7.4947173 193.80873373 -23.90523792 201.48242033 -58.39990234 192.36572266 C-70.69614326 188.62523 -79.66636374 183.50574062 -86 172 C-89.73731394 160.78805819 -86.64419672 145.65425367 -82.88671875 134.77734375 C-81.07730268 129.10996567 -83.25451486 123.84435335 -85.28125 118.50390625 C-87.57502307 110.51309898 -87.25121669 101.98997107 -87.29516602 93.74902344 C-87.30661237 92.26389991 -87.32694605 90.77881509 -87.35668945 89.29394531 C-87.64672567 74.74352502 -85.28153178 61.29039881 -79 48 C-78.58105469 47.10925781 -78.16210938 46.21851563 -77.73046875 45.30078125 C-74.13447854 38.19795762 -69.5424009 32.67657448 -64 27 C-63.13375 26.0925 -62.2675 25.185 -61.375 24.25 C-60.59125 23.5075 -59.8075 22.765 -59 22 C-58.071875 21.0925 -57.14375 20.185 -56.1875 19.25 C-46.31093918 10.96227722 -34.50274352 5.74450468 -22 3 C-21.35579102 2.85336914 -20.71158203 2.70673828 -20.04785156 2.55566406 C-13.3202314 1.03483598 -6.94142238 -0.17730325 0 0 Z " fill="#30C7E6" transform="translate(372,472)"/>
<path d="M0 0 C3.50390057 2.33593371 4.67184635 3.6873854 5.6875 7.75 C4.39379064 13.86571697 1.52461415 18.32417854 -3.71875 21.8046875 C-9.89735732 25.00546088 -16.25990702 27.30006505 -23 29 C-5.18415191 27.23005954 12.76027752 25.1304747 30.25 21.25 C40.2424772 19.15721421 50.69276072 18.25513292 60 23 C62 25 62 25 62.125 27.625 C62.08375 28.40875 62.0425 29.1925 62 30 C61.67 29.01 61.34 28.02 61 27 C47.04181565 28.1363285 33.25607565 30.08039642 19.42602539 32.23510742 C18.3840374 32.3973027 18.3840374 32.3973027 17.32099915 32.56277466 C15.42039518 32.85961463 13.52023969 33.15932206 11.62011719 33.45922852 C4.85212882 34.47022759 -1.63501482 35.13864189 -8.46875 35.17578125 C-10.09718332 35.19598277 -11.72560152 35.21743309 -13.35400391 35.23999023 C-14.19489563 35.25117889 -15.03578735 35.26236755 -15.90216064 35.27389526 C-31.02678279 35.49865206 -45.50637138 36.44808422 -60.36523438 39.47729492 C-70.71607425 41.53077418 -80.69613454 42.35753783 -91.25 42.3125 C-92.26913986 42.30976578 -92.26913986 42.30976578 -93.30886841 42.30697632 C-113.41870528 42.21631298 -131.53602966 37.94483339 -150 30 C-150 29.34 -150 28.68 -150 28 C-151.36125 27.87625 -151.36125 27.87625 -152.75 27.75 C-156.49591685 26.88555765 -157.42883937 25.73704196 -160 23 C-160.77988281 22.72542969 -161.55976563 22.45085938 -162.36328125 22.16796875 C-165.61007741 20.7297583 -166.96389623 19.04672253 -169.125 16.25 C-169.78757812 15.40953125 -170.45015625 14.5690625 -171.1328125 13.703125 C-173.06394249 10.90743053 -174.5543642 8.07085369 -176 5 C-167.33928833 4.92012519 -161.08795385 4.92834479 -154.484375 10.9609375 C-145.43898335 18.38498536 -133.25024466 22.51633943 -122 25 C-121.22358154 25.17587646 -120.44716309 25.35175293 -119.6472168 25.53295898 C-111.89938359 27.13524651 -104.33228151 27.34810952 -96.4375 27.3125 C-95.44730362 27.30876877 -95.44730362 27.30876877 -94.43710327 27.30496216 C-68.16188022 27.15216001 -47.62443809 19.51463664 -24.88525391 6.81933594 C-8.48660511 -2.25612213 -8.48660511 -2.25612213 0 0 Z " fill="#B5F8F4" transform="translate(437,651)"/>
<path d="M0 0 C0.20568604 0.52319824 0.41137207 1.04639648 0.62329102 1.58544922 C6.34061618 16.10765144 6.34061618 16.10765144 15 29 C15.66515625 29.825 16.3303125 30.65 17.015625 31.5 C25.35796979 41.34276651 35.5323571 48.24360445 47 54 C46.25339288 59.72398793 45.17122859 65.34853777 44 71 C41 72 41 72 38 71 C35.77181559 70.93062938 33.54165476 70.91542916 31.3125 70.9375 C30.13300781 70.94652344 28.95351562 70.95554687 27.73828125 70.96484375 C26.83464844 70.97644531 25.93101562 70.98804688 25 71 C24.731875 69.9275 24.46375 68.855 24.1875 67.75 C23.13772173 64.43491072 22.25387672 62.56122354 20 60 C20.495 59.01 20.495 59.01 21 58 C20.01 58.33 19.02 58.66 18 59 C16.63461347 58.04422943 15.30518475 57.03647024 14 56 C12.34416775 55.30686092 10.67889021 54.63525576 9 54 C8.67 53.67 8.34 53.34 8 53 C5.80990702 53.06537591 3.62185321 53.20358734 1.4375 53.375 C0.16519531 53.46523438 -1.10710937 53.55546875 -2.41796875 53.6484375 C-5.19610032 53.92110036 -7.67669956 54.36192495 -10.375 55 C-15.21174188 55 -16.64827541 53.19247036 -20.00390625 49.921875 C-25.7429105 44.39625838 -31.06398842 42.20207437 -39 42 C-38.57437756 29.61438696 -36.10848705 21.32466189 -27.4296875 12.26171875 C-19.88201326 5.23582906 -10.58545053 0 0 0 Z " fill="#DFF3FA" transform="translate(214,704)"/>
<path d="M0 0 C2.78125 2.5625 2.78125 2.5625 5 5 C3.42412109 5.47179687 3.42412109 5.47179687 1.81640625 5.953125 C-9.85758731 9.48968699 -19.64631311 12.88048013 -29 21 C-29.7425 21.62390625 -30.485 22.2478125 -31.25 22.890625 C-43.53490623 34.0664772 -50.29916571 50.07091849 -51.125 66.484375 C-51.27103043 72.80019095 -50.48554596 78.58991422 -49.14453125 84.76171875 C-49.00430136 87.9036262 -49.2624598 89.03007529 -50.421875 91.81640625 C-52.2995644 96.33633061 -52.4997256 100.39492143 -52.4375 105.25 C-52.42992676 106.08265381 -52.42235352 106.91530762 -52.41455078 107.77319336 C-52.12066446 118.84326881 -48.42946626 130.68987418 -40.31640625 138.65234375 C-39 140 -39 140 -39 142 C-44.06643659 141.09426832 -48.85348624 139.50867974 -53.74609375 137.9375 C-56.82811364 137.04952308 -59.82879452 136.45917907 -63 136 C-62.505 135.01 -62.505 135.01 -62 134 C-62.6833857 132.09970818 -63.44951064 130.22900696 -64.25 128.375 C-74.56048648 102.48422283 -75.22213745 66.79658998 -64.4375 41.0546875 C-56.16587684 23.47748829 -43.85522193 10.5621236 -25.81640625 3 C-17.91088187 0.19304543 -8.26979494 -3.02837561 0 0 Z " fill="#4ADBE9" transform="translate(628,474)"/>
<path d="M0 0 C0 3.84280572 -1.1723084 4.85795358 -3.5 7.875 C-13.63822854 21.4706706 -21.53204767 33.61677598 -19.66796875 51.1171875 C-17.71055196 60.841129 -12.58963861 68.86631204 -4.375 74.5 C-1.85175823 76.02436809 0.64066993 77.3022028 3.3125 78.5625 C7.31570047 80.70374676 9.2465225 83.493045 11.25 87.5 C12.48527222 91.61757408 12.52521392 93.87454161 10.6875 97.8125 C7.01785757 100.79941826 4.53985414 100.19844945 -0.046875 99.99609375 C-6.09056461 100.00408805 -11.18105217 101.63578913 -16 105.25 C-18.39724083 108.54620614 -19.1461344 111.04116858 -20 115 C-20.33 115 -20.66 115 -21 115 C-20.125 107.375 -20.125 107.375 -19 104 C-17.35178756 102.96986723 -15.68496298 101.96885372 -14 101 C-13.67 100.34 -13.34 99.68 -13 99 C-13.86625 98.773125 -14.7325 98.54625 -15.625 98.3125 C-24.15259199 94.99621422 -27.89651159 88.47496934 -31.625 80.54296875 C-33.69232684 74.86391194 -33.39778713 69.09509918 -33.3125 63.125 C-33.31572266 62.00480469 -33.31894531 60.88460937 -33.32226562 59.73046875 C-33.19054694 39.20630253 -25.40486951 23.52471035 -11 9 C-3.14185639 1.5709282 -3.14185639 1.5709282 0 0 Z " fill="#67E9F1" transform="translate(337,493)"/>
<path d="M0 0 C1.64666203 0.1135629 3.29236082 0.24117381 4.9375 0.375 C5.85402344 0.44460938 6.77054688 0.51421875 7.71484375 0.5859375 C8.46894531 0.72257812 9.22304688 0.85921875 10 1 C10.495 1.99 10.495 1.99 11 3 C12.72574889 3.68914133 14.48197005 4.30299031 16.25 4.875 C21.35122502 6.66142121 25.0467748 8.42529405 28.375 12.8125 C29.39146638 16.37013232 29.10037942 18.45433299 28 22 C20.87439551 29.9784029 8.2955238 33.13972712 -2 34 C-6.37067378 33.90787807 -10.65915433 33.49576723 -15 33 C-16.8871875 32.9071875 -16.8871875 32.9071875 -18.8125 32.8125 C-23.88036688 31.52069079 -28.43759745 28.51171043 -31.234375 24.015625 C-32.48890065 20.7128942 -31.88565003 18.36547013 -31 15 C-28.625 12.25 -28.625 12.25 -26 10 C-25.5771875 9.50242187 -25.154375 9.00484375 -24.71875 8.4921875 C-19.75072358 4.17903729 -11.15261134 2.95144089 -4.75 2.375 C-3.5125 2.25125 -2.275 2.1275 -1 2 C-0.67 1.34 -0.34 0.68 0 0 Z " fill="#F9FDFD" transform="translate(644,480)"/>
<path d="M0 0 C0.33 0.66 0.66 1.32 1 2 C1.99 2 2.98 2 4 2 C4.32613281 3.21816406 4.65226563 4.43632813 4.98828125 5.69140625 C5.42942116 7.31517655 5.87084239 8.93887044 6.3125 10.5625 C6.52583984 11.36236328 6.73917969 12.16222656 6.95898438 12.98632812 C12.13582494 31.916566 23.69345057 46.49677388 40.69140625 56.20703125 C41.78324219 56.79871094 42.87507813 57.39039063 44 58 C45.01964844 58.58136719 46.03929687 59.16273438 47.08984375 59.76171875 C63.58908739 68.66131077 81.67576575 73.22905898 99.9375 76.875 C101.02241226 77.0930127 101.02241226 77.0930127 102.12924194 77.31542969 C120.22421402 80.90908554 138.1446087 82.36744382 156.5625 83.125 C158.55666557 83.21166757 160.5508065 83.2989039 162.54492188 83.38671875 C167.36302344 83.5976805 172.18138919 83.80102397 177 84 C177 84.33 177 84.66 177 85 C179.31 85.33 181.62 85.66 184 86 C184 86.33 184 86.66 184 87 C176.25809768 87.72569083 168.57176676 88.18569062 160.796875 88.2734375 C159.76785568 88.28587494 158.73883636 88.29831238 157.67863464 88.31112671 C134.22728039 88.53981499 111.97773719 87.8888036 89 83 C87.17473831 82.63801375 85.34923827 82.27722609 83.5234375 81.91796875 C56.80875206 76.47989884 28.16606929 65.89121646 11.73828125 42.82421875 C2.84160276 28.82962837 -0.46598351 16.51652658 0 0 Z " fill="#43DEED" transform="translate(227,680)"/>
<path d="M0 0 C1.44777832 -0.02779541 1.44777832 -0.02779541 2.92480469 -0.05615234 C11.05450961 0.01452869 18.34269544 1.92586568 24.875 6.9375 C27.42525554 9.55151192 28.61486323 10.95269509 29.375 14.5 C29.18607719 19.78983858 28.18297641 22.79494187 24.375 26.5 C15.33194603 32.17819668 5.65285841 32.03285657 -4.625 30.5 C-12.60239173 28.66241304 -20.18967138 26.7369053 -25.5 20.1875 C-27.39513217 15.66023982 -26.9811456 12.0136188 -25.875 7.3125 C-19.73849864 -0.3581267 -9.03753159 0.10851983 0 0 Z " fill="#FAFDFD" transform="translate(384.625,482.5)"/>
<path d="M0 0 C1.17304687 -0.01224609 2.34609375 -0.02449219 3.5546875 -0.03710938 C13.59637941 -0.05384553 22.63382456 0.18046928 31.0546875 6.02734375 C33.80333244 7.77916252 36.73504014 8.37544142 39.875 9.1875 C41.67615496 9.82808934 43.46764254 10.49633013 45.25 11.1875 C46.53003906 11.6825 46.53003906 11.6825 47.8359375 12.1875 C49.875 13.1875 49.875 13.1875 50.875 15.1875 C50.30652344 14.98253906 49.73804688 14.77757812 49.15234375 14.56640625 C42.17354259 12.10466753 42.17354259 12.10466753 34.875 11.1875 C32.68760132 12.95818176 32.68760132 12.95818176 30.875 15.1875 C16.59271403 21.95670846 -2.98173453 20.29594198 -18.125 17.1875 C-22.08340442 15.54395197 -23.72870135 14.78194798 -26.125 11.1875 C-26.1875 8.25 -26.1875 8.25 -25.125 5.1875 C-17.22239794 -0.43550531 -9.42411556 0.00507765 0 0 Z " fill="#F5FDFD" transform="translate(530.125,612.8125)"/>
<path d="M0 0 C-3.465 1.485 -3.465 1.485 -7 3 C-3.67913229 5.77000825 -3.67913229 5.77000825 0 8 C0 8.66 0 9.32 0 10 C-6.64102253 11.18589688 -13.27392493 11.60133977 -20 12 C-20.75780762 12.04656738 -21.51561523 12.09313477 -22.29638672 12.14111328 C-50.13498848 13.79917658 -79.68874351 15.49101612 -107 9 C-107 8.34 -107 7.68 -107 7 C-105.41676312 6.972807 -103.83338938 6.95351694 -102.25 6.9375 C-100.92742188 6.92009766 -100.92742188 6.92009766 -99.578125 6.90234375 C-97 7 -97 7 -95.09375 7.5 C-92.12772869 8.2083036 -89.29323677 8.09293237 -86.25 8.0625 C-85.07953125 8.05347656 -83.9090625 8.04445313 -82.703125 8.03515625 C-81.81109375 8.02355469 -80.9190625 8.01195312 -80 8 C-79.67 8.99 -79.34 9.98 -79 11 C-78.34 10.67 -77.68 10.34 -77 10 C-75.18658158 9.91528636 -73.37005839 9.89278917 -71.5546875 9.90234375 C-70.47832031 9.90556641 -69.40195312 9.90878906 -68.29296875 9.91210938 C-67.16503906 9.92048828 -66.03710938 9.92886719 -64.875 9.9375 C-63.17150391 9.94426758 -63.17150391 9.94426758 -61.43359375 9.95117188 C-58.62234362 9.96298385 -55.8111977 9.97945493 -53 10 C-53 9.34 -53 8.68 -53 8 C-60.59 7.67 -68.18 7.34 -76 7 C-76 6.67 -76 6.34 -76 6 C-74.43995239 5.98598145 -74.43995239 5.98598145 -72.84838867 5.97167969 C-38.8258605 5.70915073 -38.8258605 5.70915073 -5.40234375 -0.19140625 C-2 -1 -2 -1 0 0 Z M-2 5 C-1.01 5.495 -1.01 5.495 0 6 C-0.99 6.495 -0.99 6.495 -2 7 C-2 6.34 -2 5.68 -2 5 Z " fill="#BEDFF1" transform="translate(714,903)"/>
<path d="M0 0 C2 2 2 2 2.125 4.625 C2.08375 5.40875 2.0425 6.1925 2 7 C1.505 5.515 1.505 5.515 1 4 C-11.85075179 5.03229919 -11.85075179 5.03229919 -24.5625 7.0625 C-30.47281956 8.27099985 -36.44016865 8.42912288 -42.45336914 8.65844727 C-43.63467407 8.70569946 -43.63467407 8.70569946 -44.83984375 8.75390625 C-45.54488037 8.77783447 -46.24991699 8.8017627 -46.97631836 8.82641602 C-49.01307822 8.94530366 -49.01307822 8.94530366 -50.98950195 9.50927734 C-53.17650545 10.04308148 -55.07946794 10.11371809 -57.328125 10.09765625 C-58.12734375 10.09443359 -58.9265625 10.09121094 -59.75 10.08789062 C-60.575 10.07951172 -61.4 10.07113281 -62.25 10.0625 C-63.09046875 10.05798828 -63.9309375 10.05347656 -64.796875 10.04882812 C-66.86461401 10.03707961 -68.93231624 10.01914522 -71 10 C-70.67 9.34 -70.34 8.68 -70 8 C-70.99 7.34 -71.98 6.68 -73 6 C-66.0497308 4.08121402 -59.07199528 3.05796494 -51.9375 2.0625 C-44.48029936 1.00288706 -37.10055922 -0.10178747 -29.75 -1.75 C-19.7575228 -3.84278579 -9.30723928 -4.74486708 0 0 Z " fill="#E1F8F8" transform="translate(497,674)"/>
<path d="M0 0 C4.61322156 2.74830221 4.61322156 2.74830221 5.9375 5.75 C5.28119794 9.50029746 4.07016558 10.64617477 1.0625 13 C-4.05883873 15.86794969 -8.70156371 15.98822456 -14.5 16.0625 C-15.25087891 16.09150391 -16.00175781 16.12050781 -16.77539062 16.15039062 C-20.67108151 16.19493239 -22.64644052 15.99629428 -26.078125 13.96484375 C-28.0625 11.75 -28.0625 11.75 -28.375 8 C-28.271875 6.9275 -28.16875 5.855 -28.0625 4.75 C-28.7225 4.42 -29.3825 4.09 -30.0625 3.75 C-29.2375 3.481875 -28.4125 3.21375 -27.5625 2.9375 C-23.99761178 1.78924776 -23.99761178 1.78924776 -20.4375 0.125 C-14.06236213 -2.27332442 -6.39267818 -2.46497337 0 0 Z " fill="#D2FDFA" transform="translate(492.0625,619.25)"/>
<path d="M0 0 C1.15113281 0.0721875 2.30226563 0.144375 3.48828125 0.21875 C22.07272305 1.32726797 40.41695296 1.03547327 59 0 C58.67 0.99 58.34 1.98 58 3 C58.59014893 2.93941406 59.18029785 2.87882813 59.78833008 2.81640625 C62.46289659 2.54271254 65.13769277 2.27133069 67.8125 2 C68.74126953 1.90460937 69.67003906 1.80921875 70.62695312 1.7109375 C71.51962891 1.62070312 72.41230469 1.53046875 73.33203125 1.4375 C74.56530151 1.31181641 74.56530151 1.31181641 75.82348633 1.18359375 C78 1 78 1 81 1 C76.02251278 6.8829707 71.4579445 7.08997372 64.17138672 7.71289062 C55.23350222 8.27753054 46.28417487 8.29577298 37.33178711 8.26074219 C34.043273 8.24993682 30.75529541 8.26074342 27.46679688 8.2734375 C25.34374881 8.27211705 23.22070108 8.26955704 21.09765625 8.265625 C20.13078384 8.26967346 19.16391144 8.27372192 18.16773987 8.27789307 C12.65864581 8.24036179 7.59823754 7.69580705 2.23069763 6.43426514 C-1.20257286 5.76588693 -4.51017061 5.93877492 -8 6 C-8.99 5.67 -9.98 5.34 -11 5 C-11 4.34 -11 3.68 -11 3 C-6.05 3.33 -1.1 3.66 4 4 C3.04134491 1.66924071 3.04134491 1.66924071 0 0 Z " fill="#C9E4F3" transform="translate(339,908)"/>
<path d="M0 0 C-0.01571045 0.6391333 -0.0314209 1.2782666 -0.04760742 1.93676758 C-0.1108263 4.89525123 -0.1492618 7.85359204 -0.1875 10.8125 C-0.21263672 11.81732422 -0.23777344 12.82214844 -0.26367188 13.85742188 C-0.35122381 22.93363906 1.55867767 30.64010023 5 39 C3.906875 38.855625 2.81375 38.71125 1.6875 38.5625 C-3.529258 37.90689307 -8.76234747 37.45251777 -14 37 C-13.67 36.34 -13.34 35.68 -13 35 C-12.67037787 27.61258642 -12.83148419 20.30322384 -14 13 C-14.53109375 13.47050781 -15.0621875 13.94101562 -15.609375 14.42578125 C-16.31578125 15.04839844 -17.0221875 15.67101562 -17.75 16.3125 C-18.79414063 17.23482422 -18.79414063 17.23482422 -19.859375 18.17578125 C-21.85114506 19.87314734 -23.88898915 21.45477809 -26 23 C-22.9305614 15.76607983 -8.50339939 0 0 0 Z " fill="#2CBFDF" transform="translate(271,618)"/>
<path d="M0 0 C3.39457305 1.90069414 5.26698854 3.58365743 6.6875 7.3125 C7.25 10.3125 7.25 10.3125 6.6875 13.3125 C3.61846537 16.68095264 1.69546225 17.98919135 -2.625 19.375 C-8.92507201 19.26821912 -13.46238791 16.74728081 -18.375 12.9375 C-20.3125 10.3125 -20.3125 10.3125 -20.9375 7.3125 C-20.10706673 3.32642031 -18.42993323 1.84994565 -15.3125 -0.6875 C-9.85926079 -2.5052464 -5.18256242 -2.37135698 0 0 Z " fill="#F8FDFD" transform="translate(689.3125,506.6875)"/>
<path d="M0 0 C1.375 2 1.375 2 2 5 C-0.27976233 10.65381057 -4.3970351 13.55922709 -9.8125 16 C-15.13111596 17.98535103 -19.36888817 18.46925932 -25 18 C-22.93243544 10.28445421 -20.37941383 6.4517316 -13.8125 1.6875 C-9.41055499 -0.73746528 -4.88660486 -0.35395931 0 0 Z " fill="#69ECF2" transform="translate(367,617)"/>
<path d="M0 0 C3.49406769 1.66762322 4.82670681 2.74006022 7 6 C7.50418234 10.63847757 6.77954397 13.25830619 4 17 C0.76584084 18.61707958 -2.50375265 18.56822376 -6 18 C-9.15554267 15.96204536 -10.6672675 14.53275134 -11.4765625 10.8046875 C-11.73521841 6.67980634 -11.56341206 4.67940866 -8.875 1.4375 C-5.51186116 -0.24406942 -3.71293499 -0.54146969 0 0 Z " fill="#F7FDFD" transform="translate(423,508)"/>
<path d="M0 0 C1.58323688 -0.027193 3.16661062 -0.04648306 4.75 -0.0625 C6.07257812 -0.07990234 6.07257812 -0.07990234 7.421875 -0.09765625 C10 0 10 0 11.90625 0.5 C14.87227131 1.2083036 17.70676323 1.09293237 20.75 1.0625 C21.92046875 1.05347656 23.0909375 1.04445313 24.296875 1.03515625 C25.18890625 1.02355469 26.0809375 1.01195312 27 1 C27.33 1.99 27.66 2.98 28 4 C28.66 3.67 29.32 3.34 30 3 C32.42275231 2.92552825 34.81640182 2.90861698 37.23828125 2.9375 C38.31495308 2.94317993 38.31495308 2.94317993 39.41337585 2.94897461 C42.48683617 2.96532491 45.56016406 2.99335266 48.63354492 3.02050781 C50.87678405 3.03865043 53.12000114 3.05071281 55.36328125 3.0625 C56.05303543 3.07079834 56.74278961 3.07909668 57.45344543 3.08764648 C61.12909725 3.10621567 64.4128296 2.72726291 68 2 C70.42205646 1.9194438 72.84615605 1.89237101 75.26953125 1.90234375 C75.95053391 1.9037587 76.63153656 1.90517365 77.33317566 1.90663147 C79.49299647 1.91219702 81.65271089 1.92474297 83.8125 1.9375 C85.28320162 1.94251946 86.75390488 1.94708159 88.22460938 1.95117188 C91.8164404 1.96215512 95.4082098 1.97939578 99 2 C96.59982937 4.40017063 95.77846404 4.32950136 92.48046875 4.58984375 C91.12961182 4.69981689 91.12961182 4.69981689 89.75146484 4.81201172 C88.84348145 4.87404785 87.93549805 4.93608398 87 5 C86.21447754 5.05559082 85.42895508 5.11118164 84.61962891 5.16845703 C56.86568163 6.93923952 27.23592163 8.47311142 0 2 C0 1.34 0 0.68 0 0 Z " fill="#C3E0F1" transform="translate(607,910)"/>
<path d="M0 0 C1.15113281 0.0721875 2.30226563 0.144375 3.48828125 0.21875 C22.07272305 1.32726797 40.41695296 1.03547327 59 0 C58.67 0.99 58.34 1.98 58 3 C58.59014893 2.93941406 59.18029785 2.87882813 59.78833008 2.81640625 C62.46289659 2.54271254 65.13769277 2.27133069 67.8125 2 C68.74126953 1.90460937 69.67003906 1.80921875 70.62695312 1.7109375 C71.51962891 1.62070312 72.41230469 1.53046875 73.33203125 1.4375 C74.56530151 1.31181641 74.56530151 1.31181641 75.82348633 1.18359375 C78 1 78 1 81 1 C79.23240055 3.27034611 78.26581648 3.94812485 75.40039062 4.50732422 C65.37896422 5.03976906 55.3757833 5.15290489 45.34130859 5.13037109 C42.50482846 5.12500913 39.66850662 5.13034905 36.83203125 5.13671875 C7.57878747 5.15028838 7.57878747 5.15028838 0 1 C0 0.67 0 0.34 0 0 Z " fill="#B8DDF1" transform="translate(339,908)"/>
<path d="M0 0 C2.375 2.25 2.375 2.25 4 5 C4.0625 7.5625 4.0625 7.5625 3 10 C-0.37219099 13.4685393 -3.16370113 14.79420005 -8 15 C-10.3125 14.5 -10.3125 14.5 -12 13 C-13 9.6875 -13 9.6875 -13 6 C-9.81990662 0.69984437 -6.13915534 -2.30218325 0 0 Z " fill="#F4FDFC" transform="translate(608,506)"/>
<path d="M0 0 C1.75570312 0.02707031 1.75570312 0.02707031 3.546875 0.0546875 C4.88492188 0.08949219 4.88492188 0.08949219 6.25 0.125 C4.25 2.125 4.25 2.125 1.625 2.25 C0.84125 2.20875 0.0575 2.1675 -0.75 2.125 C2.42265572 5.38830303 5.67487505 8.31296895 9.25 11.125 C7.56970703 11.43244141 7.56970703 11.43244141 5.85546875 11.74609375 C4.38279176 12.01811689 2.91013664 12.29025849 1.4375 12.5625 C0.69951172 12.69720703 -0.03847656 12.83191406 -0.79882812 12.97070312 C-3.86315076 13.53919737 -6.78928953 14.13809651 -9.75 15.125 C-9.75 13.805 -9.75 12.485 -9.75 11.125 C-10.41 10.795 -11.07 10.465 -11.75 10.125 C-10.47942818 9.64514033 -9.20853152 9.1661407 -7.9375 8.6875 C-7.22980469 8.42066406 -6.52210938 8.15382813 -5.79296875 7.87890625 C-4.12327604 7.26274814 -2.43842296 6.68780765 -0.75 6.125 C-3.95336822 3.29125119 -6.53087253 2.6044463 -10.75 2.125 C-7.15537669 -0.13498595 -4.18404325 -0.08368087 0 0 Z " fill="#99F3F3" transform="translate(632.75,471.875)"/>
<path d="M0 0 C0.75183563 0.00141495 1.50367126 0.0028299 2.27828979 0.00428772 C4.6829626 0.0098916 7.08754277 0.02244468 9.4921875 0.03515625 C11.12109241 0.04017075 12.74999877 0.04473375 14.37890625 0.04882812 C18.37503577 0.05986228 22.37109592 0.07712946 26.3671875 0.09765625 C23.96701687 2.49782688 23.14565154 2.42715761 19.84765625 2.6875 C18.94708496 2.76081543 18.04651367 2.83413086 17.11865234 2.90966797 C16.21066895 2.9717041 15.30268555 3.03374023 14.3671875 3.09765625 C13.58166504 3.15324707 12.79614258 3.20883789 11.98681641 3.26611328 C9.55175388 3.42147735 7.11706576 3.5468277 4.6796875 3.66015625 C3.317229 3.72384399 3.317229 3.72384399 1.92724609 3.78881836 C-11.58306707 4.34365439 -25.11441324 4.18358388 -38.6328125 4.09765625 C-38.6328125 3.76765625 -38.6328125 3.43765625 -38.6328125 3.09765625 C-37.76479004 3.04230713 -36.89676758 2.98695801 -36.00244141 2.92993164 C-32.78557185 2.72276024 -29.56898463 2.51174116 -26.35253906 2.2980957 C-24.95973648 2.20637852 -23.56683164 2.11620093 -22.17382812 2.02758789 C-20.1729154 1.90003683 -18.17238642 1.76651005 -16.171875 1.6328125 C-14.96740723 1.55426025 -13.76293945 1.47570801 -12.52197266 1.39477539 C-8.20567703 0.95089067 -4.497062 -0.03164858 0 0 Z " fill="#CAE4F3" transform="translate(679.6328125,911.90234375)"/>
<path d="M0 0 C-0.33 1.65 -0.66 3.3 -1 5 C-13.69621927 5.07493465 -26.37129357 4.84322348 -39.0625 4.5 C-40.9121041 4.45162099 -42.76171347 4.40344288 -44.61132812 4.35546875 C-49.07428258 4.23928466 -53.53715787 4.12041827 -58 4 C-58 3.67 -58 3.34 -58 3 C-56.3456897 2.970271 -56.3456897 2.970271 -54.65795898 2.93994141 C-50.49223297 2.86278401 -46.32680744 2.77425591 -42.16137695 2.68261719 C-40.37237562 2.64477509 -38.58330968 2.60985226 -36.79418945 2.578125 C-26.7321089 2.39758865 -16.9063132 1.95800927 -6.95336914 0.41552734 C-4 0 -4 0 0 0 Z " fill="#82B6D5" transform="translate(696,906)"/>
<path d="M0 0 C0.495 0.33 0.99 0.66 1.5 1 C1.17 1.33 0.84 1.66 0.5 2 C3.25006608 2.0270203 5.99986546 2.04684883 8.75 2.0625 C9.52730469 2.07087891 10.30460937 2.07925781 11.10546875 2.08789062 C11.85957031 2.09111328 12.61367188 2.09433594 13.390625 2.09765625 C14.08188477 2.10289307 14.77314453 2.10812988 15.48535156 2.11352539 C17.60363215 1.99416033 19.45064978 1.53046881 21.5 1 C23.58234592 0.93256652 25.66668557 0.91485528 27.75 0.9375 C29.36648438 0.95103516 29.36648438 0.95103516 31.015625 0.96484375 C31.83546875 0.97644531 32.6553125 0.98804688 33.5 1 C33.5 1.33 33.5 1.66 33.5 2 C22.59992371 3.76930509 12.08547539 4.254266 1.0625 4.125 C-0.45897836 4.11493151 -1.98046331 4.10581262 -3.50195312 4.09765625 C-7.1681096 4.07599182 -10.83400983 4.04168449 -14.5 4 C-14.5 3.01 -14.5 2.02 -14.5 1 C-10.13338636 -1.91107576 -4.77017978 -1.90807191 0 0 Z " fill="#C6FBF8" transform="translate(426.5,681)"/>
<path d="M0 0 C6.46153846 0.46153846 6.46153846 0.46153846 9 3 C8.625 5.625 8.625 5.625 8 8 C1.6 9.35384615 1.6 9.35384615 -1.4375 7.5625 C-1.953125 7.046875 -2.46875 6.53125 -3 6 C-2.42655063 3.13275314 -2.1385485 2.1385485 0 0 Z " fill="#76EFF2" transform="translate(572,683)"/>
<path d="M0 0 C-3.465 1.485 -3.465 1.485 -7 3 C-6.34 3.66 -5.68 4.32 -5 5 C-5.33 5.66 -5.66 6.32 -6 7 C-8.94140625 7.6328125 -8.94140625 7.6328125 -12.5625 8.125 C-13.76003906 8.29257812 -14.95757813 8.46015625 -16.19140625 8.6328125 C-17.11824219 8.75398437 -18.04507813 8.87515625 -19 9 C-18.67 7.02 -18.34 5.04 -18 3 C-15.37700199 2.30391966 -12.7520793 1.61784618 -10.125 0.9375 C-9.00544922 0.63875977 -9.00544922 0.63875977 -7.86328125 0.33398438 C-2.2265625 -1.11328125 -2.2265625 -1.11328125 0 0 Z " fill="#ACD5EC" transform="translate(714,903)"/>
<path d="M0 0 C-0.33 1.32 -0.66 2.64 -1 4 C-9.25 4 -17.5 4 -26 4 C-22.10110724 2.05055362 -18.93369288 1.18734376 -14.6875 0.3125 C-13.41261719 0.04050781 -12.13773437 -0.23148438 -10.82421875 -0.51171875 C-6.78960384 -1.02686366 -3.95256131 -0.76187792 0 0 Z " fill="#12598C" transform="translate(467,700)"/>
<path d="M0 0 C0.33 0.99 0.66 1.98 1 3 C-6.01433191 7.66435269 -11.3430249 10.346279 -20 10 C-18.67896002 8.9838154 -17.34175973 7.98866506 -16 7 C-14.576875 5.9171875 -14.576875 5.9171875 -13.125 4.8125 C-9.62834115 2.78443786 -7.93961488 2.9143562 -4 3 C-1.65738392 1.62073227 -1.65738392 1.62073227 0 0 Z " fill="#73E6EB" transform="translate(495,685)"/>
<path d="M0 0 C8.57142857 1 8.57142857 1 12 2 C12 2.66 12 3.32 12 4 C12.99 4.33 13.98 4.66 15 5 C15.6875 7.0625 15.6875 7.0625 16 9 C10.33357449 10.22517308 4.76291482 10.09228867 -1 10 C-1 9.67 -1 9.34 -1 9 C5.93 8.01 5.93 8.01 13 7 C11.22625 6.21625 9.4525 5.4325 7.625 4.625 C2.25 2.25 2.25 2.25 0 0 Z " fill="#70ECF6" transform="translate(366,473)"/>
<path d="M0 0 C-2 2 -2 2 -5.43994141 2.22705078 C-6.91051979 2.22673369 -8.38112142 2.21540987 -9.8515625 2.1953125 C-10.62559418 2.1924826 -11.39962585 2.18965271 -12.19711304 2.18673706 C-14.67323157 2.17552754 -17.1489905 2.15042203 -19.625 2.125 C-21.30207812 2.11497118 -22.97916189 2.10584516 -24.65625 2.09765625 C-28.77097223 2.07558574 -32.88542511 2.04105102 -37 2 C-37 1.34 -37 0.68 -37 0 C-36.33991943 0.00523682 -35.67983887 0.01047363 -34.99975586 0.01586914 C-31.97901378 0.03678951 -28.958287 0.0497078 -25.9375 0.0625 C-24.37999023 0.07506836 -24.37999023 0.07506836 -22.79101562 0.08789062 C-16.37305124 0.12153407 -16.37305124 0.12153407 -10 -0.53125 C-6.46209427 -1.08404777 -3.50410465 -0.64361106 0 0 Z " fill="#C0E0F1" transform="translate(417,912)"/>
<path d="M0 0 C1.58323688 -0.027193 3.16661062 -0.04648306 4.75 -0.0625 C6.07257812 -0.07990234 6.07257812 -0.07990234 7.421875 -0.09765625 C10 0 10 0 11.90625 0.5 C14.87227131 1.2083036 17.70676323 1.09293237 20.75 1.0625 C21.92046875 1.05347656 23.0909375 1.04445313 24.296875 1.03515625 C25.18890625 1.02355469 26.0809375 1.01195312 27 1 C27 1.99 27 2.98 27 4 C23.43721911 3.86057319 19.8748574 3.71232922 16.3125 3.5625 C14.80139648 3.50352539 14.80139648 3.50352539 13.25976562 3.44335938 C12.28330078 3.40146484 11.30683594 3.35957031 10.30078125 3.31640625 C9.40528564 3.27974854 8.50979004 3.24309082 7.5871582 3.20532227 C4.99221912 2.99938249 2.53945316 2.56232178 0 2 C0 1.34 0 0.68 0 0 Z " fill="#B8DBEF" transform="translate(607,910)"/>
<path d="M0 0 C-1.134375 0.45375 -2.26875 0.9075 -3.4375 1.375 C-7.04721692 2.57095806 -7.04721692 2.57095806 -8 5 C-12.95 5 -17.9 5 -23 5 C-20.74230212 2.74230212 -19.77046292 2.54006143 -16.71875 1.89453125 C-15.87699219 1.71599609 -15.03523438 1.53746094 -14.16796875 1.35351562 C-13.28753906 1.17498047 -12.40710938 0.99644531 -11.5 0.8125 C-10.17935547 0.52729492 -10.17935547 0.52729492 -8.83203125 0.23632812 C-2.25631595 -1.12815797 -2.25631595 -1.12815797 0 0 Z " fill="#83BEE0" transform="translate(421,903)"/>
<path d="M0 0 C-0.66 1.32 -1.32 2.64 -2 4 C-3.47906892 4.02689216 -4.95827483 4.04634621 -6.4375 4.0625 C-7.67306641 4.07990234 -7.67306641 4.07990234 -8.93359375 4.09765625 C-11 4 -11 4 -12 3 C-13.51469448 2.76807135 -15.03754562 2.58784762 -16.5625 2.4375 C-17.38878906 2.35371094 -18.21507812 2.26992188 -19.06640625 2.18359375 C-19.70449219 2.12300781 -20.34257812 2.06242188 -21 2 C-21 1.67 -21 1.34 -21 1 C-18.62515638 0.83079995 -16.25016522 0.66457137 -13.875 0.5 C-13.20984375 0.45230469 -12.5446875 0.40460937 -11.859375 0.35546875 C-7.89764586 0.08358538 -3.97061445 -0.04947806 0 0 Z " fill="#A6D3ED" transform="translate(398,908)"/>
<path d="M0 0 C0.66 0.99 1.32 1.98 2 3 C-3.28653562 10.34241059 -9.5520033 16.68096324 -16 23 C-16.66 22.67 -17.32 22.34 -18 22 C-17.28714844 21.33355469 -16.57429688 20.66710937 -15.83984375 19.98046875 C-9.44327947 13.8700342 -4.39636596 7.75741024 0 0 Z " fill="#98CCE7" transform="translate(469,864)"/>
<path d="M0 0 C0.99773437 0.02320313 1.99546875 0.04640625 3.0234375 0.0703125 C4.52777344 0.09738281 4.52777344 0.09738281 6.0625 0.125 C6.83335937 0.14820313 7.60421875 0.17140625 8.3984375 0.1953125 C7.7384375 1.8453125 7.0784375 3.4953125 6.3984375 5.1953125 C5.4084375 5.1953125 4.4184375 5.1953125 3.3984375 5.1953125 C3.3984375 4.5353125 3.3984375 3.8753125 3.3984375 3.1953125 C0.7584375 2.8653125 -1.8815625 2.5353125 -4.6015625 2.1953125 C-2.6015625 0.1953125 -2.6015625 0.1953125 0 0 Z " fill="#C3F8F6" transform="translate(374.6015625,471.8046875)"/>
<path d="M0 0 C1.6415049 3.2830098 0.51888624 6.42545033 0 10 C2.64 9.34 5.28 8.68 8 8 C7 10 7 10 3.6875 11.1875 C0.24333737 11.94638329 -0.83008446 11.98666245 -4 11 C-3.5247412 9.35303396 -3.04468109 7.70745272 -2.5625 6.0625 C-2.29566406 5.14597656 -2.02882813 4.22945312 -1.75390625 3.28515625 C-1 1 -1 1 0 0 Z " fill="#9FD2F0" transform="translate(776,837)"/>
<path d="M0 0 C0 0.99 0 1.98 0 3 C-5.61 3 -11.22 3 -17 3 C-11.25383268 0.12691634 -6.37269535 -0.12745391 0 0 Z " fill="#0E4077" transform="translate(458,701)"/>
<path d="M0 0 C0.33 0.66 0.66 1.32 1 2 C1.99 2 2.98 2 4 2 C4 3.98 4 5.96 4 8 C3.67 8 3.34 8 3 8 C2.67 9.98 2.34 11.96 2 14 C1.34 13.67 0.68 13.34 0 13 C0 8.71 0 4.42 0 0 Z " fill="#3CCADD" transform="translate(227,680)"/>
<path d="M0 0 C-7.3697851 4.46015566 -7.3697851 4.46015566 -12 3.75 C-12.99 3.5025 -13.98 3.255 -15 3 C-12.84951754 0.84951754 -11.45785938 0.24761825 -8.625 -0.75 C-7.85414063 -1.03359375 -7.08328125 -1.3171875 -6.2890625 -1.609375 C-3.496068 -2.08599522 -2.35534331 -1.48418893 0 0 Z " fill="#41DCEC" transform="translate(410,649)"/>
<path d="M0 0 C0.89506817 2.96986552 1.03315169 5.25639788 0.66015625 8.328125 C0.56669922 9.12734375 0.47324219 9.9265625 0.37695312 10.75 C0.22129883 11.9875 0.22129883 11.9875 0.0625 13.25 C-0.08735352 14.51070312 -0.08735352 14.51070312 -0.24023438 15.796875 C-0.48704258 17.86536277 -0.74266284 19.93279572 -1 22 C-1.33 22 -1.66 22 -2 22 C-2.9072476 15.98948465 -3.01790794 11.69439325 -1.5 5.8125 C-1.2215625 4.72582031 -0.943125 3.63914062 -0.65625 2.51953125 C-0.33140625 1.27236328 -0.33140625 1.27236328 0 0 Z " fill="#8FCBE5" transform="translate(260,763)"/>
<path d="M0 0 C6.27 0.33 12.54 0.66 19 1 C19 1.33 19 1.66 19 2 C17.02 2.33 15.04 2.66 13 3 C13 3.33 13 3.66 13 4 C11.58222818 3.91214662 10.16570961 3.80395353 8.75 3.6875 C7.96109375 3.62949219 7.1721875 3.57148437 6.359375 3.51171875 C4 3 4 3 0 0 Z " fill="#9EC9E3" transform="translate(339,908)"/>
<path d="M0 0 C0.33 0.99 0.66 1.98 1 3 C-4.41538462 7.06153846 -4.41538462 7.06153846 -7.375 6.75 C-7.91125 6.5025 -8.4475 6.255 -9 6 C-9 5.01 -9 4.02 -9 3 C-7.88625 3.0928125 -7.88625 3.0928125 -6.75 3.1875 C-3.54616994 2.96905704 -2.35968744 2.09749995 0 0 Z " fill="#89F1F2" transform="translate(495,685)"/>
<path d="M0 0 C0.99 0 1.98 0 3 0 C3.144375 0.9075 3.28875 1.815 3.4375 2.75 C3.73677644 4.47915274 4.05476961 6.20880914 4.5 7.90625 C5.04506141 10.18869467 5.32228851 12.41651691 5.5625 14.75 C5.64628906 15.54921875 5.73007812 16.3484375 5.81640625 17.171875 C5.87699219 17.77515625 5.93757812 18.3784375 6 19 C3.62400281 15.43600422 2.84268195 11.91618826 1.875 7.8125 C1.69324219 7.06291016 1.51148438 6.31332031 1.32421875 5.54101562 C0.87748314 3.69529219 0.4380306 1.84780868 0 0 Z " fill="#BBE4F3" transform="translate(770,761)"/>
<path d="M0 0 C1.32 0.33 2.64 0.66 4 1 C1.03 3.97 -1.94 6.94 -5 10 C-5 6.60406522 -4.47834052 5.93380119 -2.5 3.3125 C-2.0359375 2.68988281 -1.571875 2.06726563 -1.09375 1.42578125 C-0.7328125 0.95527344 -0.371875 0.48476563 0 0 Z " fill="#A1F5F3" transform="translate(340,491)"/>
<path d="M0 0 C0 0.99 0 1.98 0 3 C-0.78375 3.7425 -1.5675 4.485 -2.375 5.25 C-5.54874189 8.57487246 -6.04947197 10.59300639 -7 15 C-7.33 15 -7.66 15 -8 15 C-7.125 7.375 -7.125 7.375 -6 4 C-3.5 2.375 -3.5 2.375 -1 1 C-0.67 0.67 -0.34 0.34 0 0 Z " fill="#55E3F0" transform="translate(324,593)"/>
<path d="M0 0 C-5.78217394 3.05498079 -9.5589964 4.64451156 -16 3 C-16 2.67 -16 2.34 -16 2 C-13.71022755 1.47090114 -11.41810812 0.95194981 -9.125 0.4375 C-7.84882812 0.14746094 -6.57265625 -0.14257812 -5.2578125 -0.44140625 C-2 -1 -2 -1 0 0 Z " fill="#85BCDC" transform="translate(714,903)"/>
<path d="M0 0 C-1.38188453 3.21043882 -2.92421903 5.04936365 -5.625 7.25 C-6.57246094 8.03117188 -6.57246094 8.03117188 -7.5390625 8.828125 C-8.02117187 9.21484375 -8.50328125 9.6015625 -9 10 C-9.66 9.67 -10.32 9.34 -11 9 C-9.54782324 7.49403892 -8.08807139 5.99537896 -6.625 4.5 C-5.40683594 3.24703125 -5.40683594 3.24703125 -4.1640625 1.96875 C-2 0 -2 0 0 0 Z " fill="#185281" transform="translate(248,619)"/>
<path d="M0 0 C0.33 0.66 0.66 1.32 1 2 C1.8971875 1.7215625 1.8971875 1.7215625 2.8125 1.4375 C5 1 5 1 8 2 C8 2.66 8 3.32 8 4 C3.38 4 -1.24 4 -6 4 C-6 3.67 -6 3.34 -6 3 C-4.02 3 -2.04 3 0 3 C0 2.01 0 1.02 0 0 Z " fill="#B5F8F6" transform="translate(382,479)"/>
<path d="M0 0 C8.57142857 1 8.57142857 1 12 2 C12 2.66 12 3.32 12 4 C10.56138706 3.91253716 9.12402492 3.80434652 7.6875 3.6875 C6.88699219 3.62949219 6.08648437 3.57148438 5.26171875 3.51171875 C2.63727666 2.91793306 1.69179328 2.04219706 0 0 Z " fill="#83F2F5" transform="translate(366,473)"/>
<path d="M0 0 C-2.95183101 2.95183101 -5.95511947 3.08663988 -10 4 C-10 3.01 -10 2.02 -10 1 C-6.21812119 -0.83691257 -4.05431692 -1.15837626 0 0 Z " fill="#48D9E6" transform="translate(425,642)"/>
<path d="M0 0 C0.99 0.66 1.98 1.32 3 2 C3.1875 4.625 3.1875 4.625 3 7 C2.67 6.01 2.34 5.02 2 4 C-1.96 4 -5.92 4 -10 4 C-10 3.67 -10 3.34 -10 3 C-9.36191406 2.95101562 -8.72382813 2.90203125 -8.06640625 2.8515625 C-7.24011719 2.77679687 -6.41382813 2.70203125 -5.5625 2.625 C-4.73878906 2.55539062 -3.91507812 2.48578125 -3.06640625 2.4140625 C-2.38449219 2.27742187 -1.70257813 2.14078125 -1 2 C-0.67 1.34 -0.34 0.68 0 0 Z " fill="#C0F4F5" transform="translate(496,674)"/>
<path d="M0 0 C0.68707555 2.49064888 1 4.37886292 1 7 C2.32 7.33 3.64 7.66 5 8 C5 8.66 5 9.32 5 10 C3.33388095 10.042721 1.66617115 10.04063832 0 10 C-0.33 9.67 -0.66 9.34 -1 9 C-0.91062197 7.47480724 -0.75462854 5.95318071 -0.5625 4.4375 C-0.46066406 3.61121094 -0.35882813 2.78492188 -0.25390625 1.93359375 C-0.17011719 1.29550781 -0.08632813 0.65742187 0 0 Z " fill="#69EEF2" transform="translate(423,632)"/>
<path d="M0 0 C1.875 0.3125 1.875 0.3125 4 1 C6 4 6 4 6 7 C4.35 7 2.7 7 1 7 C1.99 6.34 2.98 5.68 4 5 C3.01 4.319375 3.01 4.319375 2 3.625 C1.34 3.08875 0.68 2.5525 0 2 C0 1.34 0 0.68 0 0 Z " fill="#8AF3F5" transform="translate(628,473)"/>
<path d="M0 0 C1.7492214 -0.08142927 3.49954542 -0.13938541 5.25 -0.1875 C6.22453125 -0.22230469 7.1990625 -0.25710938 8.203125 -0.29296875 C11.37468742 0.03924798 12.67040307 0.88672279 15 3 C13.33388095 3.042721 11.66617115 3.04063832 10 3 C9.67 2.67 9.34 2.34 9 2 C7.48530552 1.76807135 5.96245438 1.58784762 4.4375 1.4375 C3.61121094 1.35371094 2.78492188 1.26992188 1.93359375 1.18359375 C1.29550781 1.12300781 0.65742188 1.06242188 0 1 C0 0.67 0 0.34 0 0 Z " fill="#8BBFDE" transform="translate(377,909)"/>
<path d="M0 0 C0.66 0.99 1.32 1.98 2 3 C0.15794162 5.54379491 -1.72478134 7.83312509 -4 10 C-3.43454163 6.04179141 -2.19097652 3.3340947 0 0 Z " fill="#BDE0F1" transform="translate(469,864)"/>
<path d="M0 0 C1.32 0.33 2.64 0.66 4 1 C1.69 3.31 -0.62 5.62 -3 8 C-3 4.42424104 -1.91159393 2.94704065 0 0 Z " fill="#E3F6FB" transform="translate(821,783)"/>
<path d="M0 0 C1.9375 0.75 1.9375 0.75 4 2 C4.75 4.125 4.75 4.125 5 6 C4.401875 5.690625 3.80375 5.38125 3.1875 5.0625 C0.91043228 3.89790296 0.91043228 3.89790296 -2 3 C-1.34 2.01 -0.68 1.02 0 0 Z " fill="#96EFEE" transform="translate(502,700)"/>
<path d="M0 0 C0.99 0.33 1.98 0.66 3 1 C2.360625 1.556875 1.72125 2.11375 1.0625 2.6875 C-1.19680987 5.22066561 -1.63149047 6.68341424 -2 10 C-2.33 10 -2.66 10 -3 10 C-3.36923077 4.58461538 -3.36923077 4.58461538 -1.5 1.625 C-1.005 1.08875 -0.51 0.5525 0 0 Z " fill="#E7FDFB" transform="translate(672,507)"/>
<path d="M0 0 C0.99 0.33 1.98 0.66 3 1 C1.68 2.32 0.36 3.64 -1 5 C-2.32 4.34 -3.64 3.68 -5 3 C-2.6875 1.4375 -2.6875 1.4375 0 0 Z " fill="#1188C0" transform="translate(583,737)"/>
<path d="M0 0 C0.99 0.33 1.98 0.66 3 1 C0.03 3.475 0.03 3.475 -3 6 C-1.125 1.125 -1.125 1.125 0 0 Z " fill="#58DEE9" transform="translate(576,495)"/>
<path d="M0 0 C-2.6224715 2.6224715 -4.35023127 2.64217954 -8 3 C-10.875 2.5625 -10.875 2.5625 -13 2 C-13 1.67 -13 1.34 -13 1 C-8.59085217 -0.10228696 -4.51617599 -0.07654536 0 0 Z " fill="#366F9A" transform="translate(620,459)"/>
</svg>
