<svg xmlns="http://www.w3.org/2000/svg" viewBox="0 0 420 700" fill="none">
  <path
    d="M289 66c20 0 37 16 37 36 0 25-13 45-41 64l-27-31c10-15 16-32 16-48 0-12 7-21 15-21Z"
    fill="#282524"
  />
  <path
    d="M205 100c73 0 136 71 136 159v174c0 38-21 70-53 85l-58 28c-13 6-27 6-40 0l-57-28c-33-15-54-48-54-85V259c0-88 63-159 126-159Z"
    fill="#F6D34F"
  />
  <ellipse cx="208" cy="255" rx="96" ry="84" fill="#F9F2EE" />
  <path
    d="M207 173c20 0 40 8 53 23-11 3-20 10-25 21-4-7-15-11-28-11-13 0-24 4-28 11-4-11-14-18-25-21 13-15 33-23 53-23Z"
    fill="#E7A5B8"
  />
  <circle cx="168" cy="257" r="17" fill="#EAE8E9" />
  <circle cx="251" cy="257" r="17" fill="#EAE8E9" />
  <circle cx="170" cy="259" r="10" fill="#171918" />
  <circle cx="253" cy="259" r="10" fill="#171918" />
  <path d="M208 293 193 306h30l-15-13Z" fill="#F08FAE" />
  <path
    d="M188 313c6 11 13 16 20 16s14-5 20-16c-7 2-14 3-20 3s-13-1-20-3Z"
    fill="#EA7F9F"
  />
  <path
    d="M126 395c34-39 131-36 164 0 10 11 18 29 18 46 0 34-30 63-67 63h-66c-37 0-67-29-67-63 0-17 8-35 18-46Z"
    fill="#FA3E77"
  />
  <ellipse cx="220" cy="447" rx="41" ry="33" fill="#FF5DA0" />
  <path
    d="M108 436c17 0 30 12 30 28 0 20-11 31-24 37-11 5-24-2-24-15v-22c0-15 8-28 18-28Z"
    fill="#A98B84"
  />
  <path
    d="M303 436c-17 0-30 12-30 28 0 20 11 31 24 37 11 5 24-2 24-15v-22c0-15-8-28-18-28Z"
    fill="#A98B84"
  />
  <path
    d="M164 506c18 0 32 14 32 31v53c0 17-14 31-32 31s-32-14-32-31v-53c0-17 14-31 32-31Z"
    fill="#A98B84"
  />
  <path
    d="M248 506c18 0 32 14 32 31v53c0 17-14 31-32 31s-32-14-32-31v-53c0-17 14-31 32-31Z"
    fill="#A98B84"
  />
  <text
    x="210"
    y="682"
    text-anchor="middle"
    fill="#15161D"
    font-size="52"
    font-family="'Trebuchet MS', sans-serif"
    letter-spacing="11"
  >
    COUCOU
  </text>
</svg>
